# xmcd
#
# Track frame offsets:
#	150
#	20642
#	34655
#	45467
#	59117
#	69762
#	82915
#	98452
#	117780
#	132700
#	141117
#
# Disc length: 2039 seconds
#
# Revision: 0
# Processed by: cddbd v1.5.1PL0 Copyright (c) Steve Scherf et al.
# Submitted via: CDDB.pm 1.12
#
DISCID=8f07f50b
DTITLE=Various Artist - The Best Of Greece
DYEAR=1900
DGENRE=
TTITLE0=Play Bouzouki
TTITLE1=Aponi Zoi
TTITLE2=To Pallikari Ehi Kaimo
TTITLE3=Matia Vourkomena
TTITLE4=Otan Simamoun I Kabanes
TTITLE5=Deka Pallikara
TTITLE6=Kalimepa Llie
TTITLE7=Zorba's Dance
TTITLE8=Oniro Demeno
TTITLE9=S'Afti Tin Gitonia
TTITLE10=Baxe Tsifliki
EXTD=
EXTT0=
EXTT1=
EXTT2=
EXTT3=
EXTT4=
EXTT5=
EXTT6=
EXTT7=
EXTT8=
EXTT9=
EXTT10=
PLAYORDER=
